<?xml version="1.0" standalone="no"?>
<!DOCTYPE svg PUBLIC "-//W3C//DTD SVG 20010904//EN"
 "http://www.w3.org/TR/2001/REC-SVG-20010904/DTD/svg10.dtd">
<svg version="1.0" xmlns="http://www.w3.org/2000/svg"
 width="1024.000000pt" height="1024.000000pt" viewBox="0 0 1024.000000 1024.000000"
 preserveAspectRatio="xMidYMid meet">
<metadata>
Created by potrace 1.14, written by Peter Selinger 2001-2017
</metadata>
<g transform="translate(0.000000,1024.000000) scale(0.100000,-0.100000)"
fill="#000000" stroke="none">
<path d="M2092 7392 c-13 -4 1329 -6 2982 -5 2376 1 3016 -1 3058 -11 43 -10
-529 -13 -2967 -11 -2502 1 -3029 -1 -3075 -13 -100 -24 -229 -94 -306 -165
-121 -112 -186 -234 -219 -413 -15 -80 -17 -235 -13 -1748 3 -914 8 -1670 12
-1681 6 -16 5 -17 -3 -4 -28 43 -31 219 -31 1794 0 885 2 1628 5 1650 5 38 5
39 -6 10 -7 -21 -10 -544 -10 -1700 0 -1873 -6 -1713 77 -1884 89 -181 263
-315 470 -361 29 -7 1068 -10 3062 -11 3357 -1 3056 -7 3209 68 187 93 309
250 369 476 11 43 14 328 14 1722 0 1816 3 1705 -54 1847 -39 95 -86 167 -161
244 -73 75 -157 123 -305 176 l-65 23 -3010 2 c-1655 0 -3020 -2 -3033 -5z
m6100 -170 c166 -67 297 -201 356 -363 l27 -74 2 -1515 c2 -833 4 -1544 6
-1580 2 -36 4 646 6 1515 2 985 6 1568 12 1548 6 -19 8 -706 7 -1705 l-3
-1673 -32 -68 c-83 -174 -193 -277 -362 -337 l-82 -29 -2967 0 c-1632 1 -2983
4 -3002 9 -34 8 -34 8 15 10 l50 3 -55 7 c-123 16 -244 76 -340 169 -76 74
-111 137 -142 249 -21 76 -21 91 -23 1672 -1 877 2 1634 6 1683 11 102 28 150
83 232 74 110 209 218 319 256 49 17 206 18 3057 16 l3005 -2 57 -23z"/>
<path d="M2775 7006 c-58 -25 -94 -65 -111 -123 -42 -145 45 -283 178 -283 29
0 63 10 106 32 64 34 66 37 76 98 6 34 5 34 -11 -8 -14 -34 -27 -47 -67 -67
-72 -36 -104 -32 -41 4 69 40 92 67 109 131 l15 55 1 -40 c1 -36 3 -38 12 -18
28 58 -29 179 -102 215 -42 20 -123 22 -165 4z m60 -18 c-79 -21 -116 -64
-141 -163 l-12 -50 -1 38 c-2 98 77 187 164 186 28 -1 27 -2 -10 -11z"/>
<path d="M7295 7004 c-77 -28 -124 -99 -125 -190 0 -96 76 -201 162 -219 49
-11 118 4 145 31 14 14 23 27 20 30 -2 3 -28 -4 -56 -16 -69 -27 -73 -25 -20
9 53 34 79 62 108 116 21 38 22 38 17 10 -2 -16 -8 -38 -12 -48 -6 -17 -5 -18
15 -5 21 12 22 19 19 83 -4 90 -30 140 -92 183 -55 36 -111 42 -181 16z m79
-13 c-70 -12 -129 -66 -161 -148 l-14 -38 5 44 c7 72 100 151 176 149 35 0 35
-1 -6 -7z"/>
<path d="M5322 6947 c-21 -22 -22 -31 -22 -241 0 -187 2 -222 17 -247 43 -72
69 -33 79 118 4 75 10 110 18 107 6 -3 48 -56 94 -118 46 -62 94 -119 108
-127 22 -11 27 -10 47 9 21 22 22 31 25 235 2 220 -2 247 -40 271 -14 8 -22 7
-35 -7 -14 -14 -18 -41 -23 -134 -3 -68 -9 -118 -16 -120 -5 -2 -21 16 -34 39
-43 77 -112 182 -138 211 -31 33 -52 34 -80 4z"/>
<path d="M5937 6958 c-81 -22 -144 -123 -117 -187 18 -45 79 -96 144 -120 31
-11 60 -21 65 -21 4 0 16 -9 26 -20 15 -17 16 -24 7 -45 -18 -40 -56 -49 -105
-25 -23 11 -49 25 -58 31 -21 16 -66 4 -79 -22 -27 -49 130 -142 210 -124 40
9 106 59 125 94 45 89 -4 165 -138 216 -93 35 -124 85 -75 119 35 25 74 20
110 -14 47 -45 98 -36 98 17 0 30 -64 90 -109 103 -42 12 -53 11 -104 -2z
m-18 -37 c-25 -15 -55 -41 -67 -56 -12 -15 -22 -23 -22 -18 0 17 42 64 74 84
50 31 64 22 15 -10z"/>
<path d="M6453 6963 c-72 -3 -103 -7 -103 -16 0 -7 -9 -23 -20 -37 -11 -14
-20 -34 -21 -45 -1 -16 -2 -16 -6 -3 -2 9 3 32 11 52 8 20 11 34 5 30 -22 -13
-28 -60 -30 -249 l-2 -196 27 -28 c26 -27 32 -28 149 -34 134 -7 167 2 167 47
0 42 -28 56 -111 53 -93 -3 -125 6 -133 36 -14 59 13 77 113 77 49 0 71 13 71
41 0 34 -28 49 -94 49 -70 0 -96 17 -96 63 0 51 23 60 137 54 94 -6 103 -5
113 12 5 11 10 29 10 40 0 23 -45 62 -69 59 -9 -1 -62 -4 -118 -5z"/>
<path d="M3645 6937 c-13 -21 -16 -58 -16 -224 -1 -109 0 -203 0 -210 1 -6 13
-25 27 -42 l26 -31 128 0 c126 0 128 0 144 25 37 56 -5 85 -124 85 -114 0
-112 -3 -105 188 7 168 2 190 -42 219 -20 13 -23 12 -38 -10z"/>
<path d="M4089 6938 c-9 -16 -11 -89 -10 -248 2 -189 5 -228 18 -242 21 -24
50 -23 63 1 6 12 10 107 10 239 0 207 -1 221 -21 246 -25 32 -44 33 -60 4z"/>
<path d="M4440 6944 c-46 -20 -87 -60 -113 -109 -16 -32 -20 -60 -21 -141 -1
-95 1 -103 29 -148 17 -27 50 -63 73 -80 40 -28 51 -31 117 -31 65 0 78 3 116
30 23 17 49 45 56 62 12 30 11 35 -7 53 -28 28 -64 26 -84 -5 -23 -35 -85 -50
-129 -31 -44 18 -63 46 -78 112 -17 73 -5 120 41 166 53 53 105 50 163 -8 23
-23 32 -26 54 -18 64 22 54 81 -21 132 -41 27 -57 32 -105 32 -31 -1 -72 -8
-91 -16z m50 -3 c-70 -22 -113 -58 -149 -126 -12 -22 -21 -32 -21 -23 0 8 15
38 33 64 33 50 101 95 142 93 17 -1 16 -2 -5 -8z"/>
<path d="M4948 6953 c-72 -3 -99 -8 -109 -19 -9 -12 -14 -72 -16 -224 -3 -202
-2 -208 20 -241 l23 -34 119 -3 c66 -1 130 0 142 3 51 12 74 77 32 90 -12 4
-65 8 -119 10 -54 1 -103 5 -109 9 -15 10 -14 71 2 84 6 5 43 12 80 14 71 4
87 14 87 54 0 32 -20 44 -76 44 -80 0 -104 12 -104 54 0 18 7 39 15 46 8 6 59
14 115 17 105 6 130 16 130 53 0 27 -43 50 -92 48 -24 -1 -86 -4 -140 -5z
m-107 -60 c-12 -20 -14 -14 -5 12 4 9 9 14 11 11 3 -2 0 -13 -6 -23z"/>
<path d="M2007 6889 c-15 -9 -17 -26 -17 -128 0 -144 5 -151 99 -151 55 0 63
2 70 23 14 37 3 47 -50 47 l-49 0 0 93 c0 77 -3 97 -18 110 -12 11 -22 13 -35
6z"/>
<path d="M2258 6874 c-32 -17 -43 -49 -34 -102 4 -20 6 -58 6 -83 -1 -61 23
-83 90 -83 54 0 80 16 80 48 0 19 -5 21 -57 18 -32 -1 -64 1 -71 6 -25 17 -1
38 51 48 47 8 52 12 55 37 l3 27 -70 0 c-54 0 -71 3 -71 14 0 20 23 26 91 26
32 0 59 4 59 9 0 17 -53 51 -79 51 -14 -1 -38 -7 -53 -16z"/>
<path d="M8150 6883 c-35 -14 -50 -37 -50 -79 0 -69 5 -74 69 -74 59 0 81 11
81 42 0 15 -9 18 -65 18 -36 0 -65 4 -65 10 0 18 42 32 86 28 46 -3 54 5 32
35 -14 18 -64 30 -88 20z"/>
<path d="M7886 6848 c-11 -50 -25 -199 -20 -212 5 -14 46 -36 67 -36 7 0 29 5
50 11 30 8 37 15 37 34 0 21 -5 25 -29 25 -16 0 -42 3 -59 6 -27 6 -30 9 -21
25 5 11 17 19 26 19 13 0 14 10 8 68 -8 78 -10 82 -35 82 -12 0 -21 -9 -24
-22z"/>
<path d="M8100 6668 c0 -38 30 -58 84 -58 60 0 86 14 86 45 0 24 -3 25 -62 25
-35 0 -73 3 -85 6 -19 5 -23 2 -23 -18z"/>
<path d="M2302 6044 c-54 -38 -52 5 -52 -1034 0 -1033 -1 -1002 49 -1030 13
-6 142 -10 349 -10 328 0 329 0 349 23 32 34 43 62 43 106 0 110 -25 122 -262
119 l-183 -2 187 -6 c102 -3 190 -8 194 -12 4 -5 -92 -8 -214 -8 -131 0 -222
4 -222 9 0 5 12 12 28 14 26 4 26 4 -4 6 -67 3 -62 -54 -70 906 -7 962 -2 892
-71 921 -43 18 -93 18 -121 -2z m98 -14 c11 -7 4 -10 -26 -10 -26 0 -51 -7
-65 -19 l-24 -19 -5 -954 -5 -953 -3 956 c-2 954 -2 956 19 983 15 20 29 26
57 26 20 0 44 -5 52 -10z"/>
<path d="M3355 6042 c-17 -11 -39 -31 -48 -46 -17 -25 -18 -84 -15 -989 3
-1075 -2 -996 74 -1032 71 -34 155 -4 173 62 12 41 14 1895 2 1947 -13 63
-124 97 -186 58z m93 -2 c6 0 12 -4 12 -10 0 -5 -18 -10 -39 -10 -27 0 -48 -7
-66 -22 l-26 -23 -1 -965 c0 -531 -4 -951 -8 -935 -13 51 -12 1877 1 1915 13
35 60 63 94 55 11 -3 26 -5 33 -5z"/>
<path d="M4197 6046 c-26 -7 -51 -17 -55 -21 -4 -5 2 -5 13 0 11 4 54 9 95 11
l75 4 -75 -18 c-41 -10 -100 -31 -129 -47 -72 -39 -151 -118 -179 -178 -30
-64 -45 -218 -38 -392 3 -77 2 -351 -3 -610 l-7 -470 -2 665 c-1 366 3 697 8
737 5 40 18 90 29 110 19 38 94 115 141 147 13 9 19 16 13 16 -19 0 -96 -63
-129 -107 -18 -24 -43 -68 -55 -100 l-24 -58 -3 -702 c-4 -777 -4 -777 59
-875 41 -64 117 -131 187 -165 51 -25 67 -28 162 -28 100 0 108 2 169 34 36
18 90 59 121 90 76 75 102 142 108 276 l4 100 -30 18 c-32 18 -46 22 -39 10 3
-5 -14 -6 -37 -5 -34 3 -49 -1 -74 -23 -29 -24 -32 -32 -32 -83 0 -88 -15
-127 -64 -167 -44 -36 -116 -59 -116 -36 0 6 11 11 23 11 21 0 107 52 107 65
0 2 -21 -9 -47 -25 -51 -32 -81 -36 -134 -19 -41 14 -75 44 -97 84 -21 39 -34
524 -28 1027 5 381 6 387 58 434 36 33 63 44 108 44 94 0 170 -85 170 -191 0
-45 40 -71 118 -77 68 -4 68 -4 96 29 27 32 28 37 23 111 -6 97 -45 186 -114
259 -60 64 -111 94 -193 113 -78 19 -119 19 -183 2z"/>
<path d="M5045 6051 c-16 -8 -10 -10 27 -10 26 -1 50 -5 53 -11 4 -6 -10 -10
-34 -10 -28 0 -48 -7 -68 -24 l-28 -24 0 -234 c0 -128 -2 -557 -5 -953 l-4
-720 -6 440 c-3 242 -3 677 0 966 4 448 7 530 20 546 8 11 2 6 -14 -10 l-28
-30 6 -816 c3 -449 6 -888 6 -977 0 -156 1 -162 24 -187 45 -49 123 -48 178 2
l32 28 3 464 c2 255 3 472 3 482 0 10 8 17 19 17 29 0 58 -79 193 -535 64
-217 120 -382 143 -421 39 -66 124 -91 200 -60 72 30 67 -43 70 1029 3 731 1
969 -8 988 -17 32 -74 69 -109 69 -37 0 -84 -24 -98 -51 -13 -24 -19 -99 -8
-105 4 -3 8 18 8 45 0 38 5 56 20 71 21 21 74 27 100 10 11 -7 7 -10 -17 -10
-19 0 -43 -10 -60 -24 l-28 -24 -8 -469 c-8 -502 -10 -540 -32 -569 -15 -18
-16 -18 -34 3 -23 28 -75 185 -146 442 -55 200 -174 571 -200 622 -8 14 -20
31 -29 38 -19 16 -115 24 -141 12z"/>
<path d="M7375 6050 c-55 -3 -106 -9 -113 -13 -6 -5 -20 -23 -29 -40 -16 -30
-17 -106 -16 -1001 l0 -970 30 -27 31 -27 323 -4 c355 -5 365 -4 394 52 20 39
23 133 5 155 -35 42 -62 46 -282 44 l-211 -3 -23 27 -24 28 0 311 c0 268 2
314 16 329 13 15 32 16 158 12 159 -6 175 -2 200 51 25 53 21 118 -10 155 -24
29 -64 45 -48 19 5 -8 -2 -9 -26 -5 -18 4 -71 8 -119 9 l-86 2 110 6 110 6
-131 2 c-183 3 -169 -25 -169 322 0 220 3 280 14 293 12 15 42 17 246 17 l234
0 20 26 c22 28 37 116 26 163 -13 60 -30 64 -293 65 -130 1 -282 -1 -337 -4z
m550 -20 c4 -7 -99 -10 -303 -10 -301 0 -310 -1 -336 -21 -15 -12 -32 -31 -36
-43 -8 -20 -9 -20 -9 -1 -1 11 8 35 19 53 l20 32 319 0 c203 0 322 -4 326 -10z
m-678 -1542 c-1 -227 -2 -42 -2 412 0 454 1 639 2 413 2 -227 2 -599 0 -825z
m703 -288 c10 -6 -62 -9 -210 -8 -217 2 -220 2 -80 8 248 10 275 10 290 0z"/>
<path d="M6399 6027 c-79 -33 -121 -61 -163 -107 -37 -41 -76 -110 -76 -132 1
-7 13 10 27 37 45 88 88 132 166 170 79 37 163 52 224 39 35 -7 32 -8 -40 -15
-99 -9 -192 -52 -263 -124 -85 -85 -113 -188 -114 -419 0 -66 -3 -116 -6 -113
-4 4 -10 55 -14 114 l-7 108 -1 -90 c-2 -108 9 -159 51 -244 40 -83 118 -167
232 -251 118 -88 219 -192 252 -258 24 -50 26 -64 31 -240 4 -184 4 -187 -20
-222 -30 -44 -92 -80 -138 -80 -46 0 -109 37 -132 77 -11 17 -25 62 -32 100
-14 81 -31 94 -116 91 -47 -1 -49 -2 -15 -5 53 -6 71 -23 23 -23 -50 0 -100
-37 -115 -85 l-13 -40 5 54 c2 29 10 60 17 69 11 13 10 14 -8 4 -27 -14 -34
-32 -34 -87 0 -60 31 -153 69 -209 39 -57 117 -120 191 -155 48 -23 68 -26
155 -26 93 0 105 2 166 32 85 42 169 129 212 220 l32 68 0 200 c0 222 -4 244
-73 385 -47 95 -187 244 -311 329 -106 72 -157 127 -168 178 -4 21 -8 99 -8
173 0 122 2 138 22 170 42 68 137 99 202 65 42 -21 80 -71 92 -120 17 -67 38
-80 124 -80 64 0 77 3 100 25 25 23 27 30 22 82 -11 127 -106 262 -225 320
-59 29 -77 33 -166 36 -88 2 -108 0 -157 -21z m330 -1637 c1 -65 -3 -94 -17
-120 -26 -48 -104 -100 -151 -99 l-36 0 50 19 c28 11 69 38 90 60 l40 41 4
182 c4 168 5 175 12 92 4 -49 7 -128 8 -175z"/>
<path d="M6142 5710 c0 -19 2 -27 5 -17 2 9 2 25 0 35 -3 9 -5 1 -5 -18z"/>
<path d="M4543 4503 c9 -2 25 -2 35 0 9 3 1 5 -18 5 -19 0 -27 -2 -17 -5z"/>
<path d="M4466 4485 c-19 -20 -28 -67 -24 -130 3 -50 3 -50 11 20 4 39 14 82
22 98 16 31 13 34 -9 12z"/>
<path d="M4426 4283 c-6 -14 -5 -15 5 -6 7 7 10 15 7 18 -3 3 -9 -2 -12 -12z"/>
<path d="M7327 3626 c-54 -15 -88 -42 -128 -105 -52 -81 -33 -191 46 -259 45
-40 74 -52 123 -52 58 0 109 18 126 45 19 28 15 31 -17 11 -12 -7 -39 -16 -61
-19 l-39 -6 45 28 c52 33 85 76 104 134 l13 42 0 -48 c1 -63 25 -59 29 4 11
147 -109 259 -241 225z m-50 -67 c-37 -32 -51 -54 -66 -102 -15 -48 -20 -55
-20 -32 0 17 8 48 18 70 18 40 82 105 103 105 6 0 -10 -18 -35 -41z"/>
<path d="M2800 3615 c-44 -14 -97 -56 -125 -98 -7 -12 -17 -49 -20 -82 -5 -51
-3 -67 17 -105 27 -53 94 -106 145 -116 43 -8 114 8 148 34 30 22 65 74 65 96
0 12 -14 3 -48 -32 -26 -26 -58 -51 -71 -55 -20 -5 -16 2 21 36 25 23 55 61
67 85 16 31 27 42 38 38 25 -10 11 72 -20 120 -53 79 -130 107 -217 79z m-6
-34 c-32 -20 -94 -88 -94 -106 -1 -5 -7 -23 -15 -40 l-14 -30 5 40 c10 71 83
155 134 155 8 0 1 -9 -16 -19z"/>
<path d="M2007 3593 c-4 -3 -7 -61 -7 -128 0 -144 6 -155 87 -155 37 0 55 5
68 20 22 24 13 50 -17 50 -63 1 -66 4 -70 106 -2 71 -7 97 -18 104 -18 11 -34
13 -43 3z"/>
<path d="M8133 3580 c-25 -15 -33 -27 -33 -49 0 -33 24 -96 41 -106 7 -5 3
-14 -11 -27 -27 -25 -22 -59 10 -75 61 -31 150 -1 136 45 -6 18 -14 21 -58 19
-65 -3 -74 17 -19 39 28 11 41 22 41 35 0 16 -8 19 -55 19 -40 0 -55 4 -55 14
0 25 28 38 75 34 46 -3 60 7 49 36 -6 15 -47 36 -72 36 -9 0 -32 -9 -49 -20z"/>
<path d="M2251 3574 c-19 -14 -22 -22 -17 -50 3 -19 9 -50 12 -69 6 -33 9 -35
43 -35 50 0 79 9 85 27 12 29 -15 45 -66 41 -55 -6 -65 11 -22 39 21 14 33 15
65 6 34 -9 39 -8 39 7 0 46 -90 68 -139 34z"/>
<path d="M7880 3571 c-5 -11 -10 -64 -10 -118 0 -126 7 -138 83 -137 59 0 87
15 87 45 0 14 -7 19 -29 19 -16 0 -41 4 -56 10 -26 10 -26 11 -19 83 7 77 -4
117 -31 117 -8 0 -19 -9 -25 -19z"/>
<path d="M3488 3478 c-13 -3 67 -6 177 -5 222 0 219 5 -7 9 -81 2 -157 0 -170
-4z"/>
<path d="M4078 3473 c89 -2 235 -2 325 0 89 1 16 3 -163 3 -179 0 -252 -2
-162 -3z"/>
<path d="M5133 3473 c284 -2 750 -2 1035 0 284 1 51 2 -518 2 -569 0 -802 -1
-517 -2z"/>
<path d="M6739 3466 c-2 -3 -736 -7 -1631 -10 -894 -3 -1633 -9 -1642 -12 -32
-12 -31 -64 2 -81 9 -4 752 -8 1651 -8 l1633 0 19 24 c24 30 24 53 1 74 -19
18 -26 20 -33 13z"/>
<path d="M2236 3378 c-8 -33 35 -68 84 -68 54 0 80 15 80 45 0 23 -4 25 -42
25 -24 0 -59 4 -80 9 -32 7 -37 6 -42 -11z"/>
<path d="M8517 3279 c-53 -109 -131 -186 -251 -245 -97 -48 -82 -51 19 -3 107
50 217 170 264 287 26 62 6 38 -32 -39z"/>
<path d="M3215 2974 c17 -2 242 -5 500 -6 259 -2 439 0 400 3 -38 4 -263 6
-500 6 -236 0 -416 -2 -400 -3z"/>
<path d="M4450 2969 c45 -7 407 -12 399 -5 -2 2 -103 5 -224 8 -121 3 -200 1
-175 -3z"/>
<path d="M5053 2973 c32 -2 81 -2 110 0 29 2 3 3 -58 3 -60 0 -84 -1 -52 -3z"/>
<path d="M5690 2970 c-195 -3 88 -6 630 -6 542 0 965 1 940 3 -90 6 -1224 8
-1570 3z"/>
<path d="M7980 2970 l-125 -6 120 -1 c66 -1 131 3 145 7 18 6 20 8 5 7 -11 -1
-76 -4 -145 -7z"/>
<path d="M2298 2963 c7 -3 16 -2 19 1 4 3 -2 6 -13 5 -11 0 -14 -3 -6 -6z"/>
<path d="M2423 2963 c32 -2 81 -2 110 0 29 2 3 3 -58 3 -60 0 -84 -1 -52 -3z"/>
<path d="M2828 2963 c12 -2 30 -2 40 0 9 3 -1 5 -23 4 -22 0 -30 -2 -17 -4z"/>
<path d="M2938 2963 c18 -2 45 -2 60 0 15 2 0 4 -33 4 -33 0 -45 -2 -27 -4z"/>
<path d="M1985 7356 c-65 -32 -55 -32 20 -1 33 13 53 25 45 25 -8 0 -37 -11
-65 -24z"/>
<path d="M1798 7246 c-31 -25 -60 -50 -64 -57 -4 -7 20 8 54 34 53 42 80 67
70 67 -2 0 -28 -20 -60 -44z"/>
<path d="M1669 7118 c-39 -54 -103 -181 -118 -232 -16 -60 -6 -55 14 6 23 70
69 162 111 221 19 26 32 47 29 47 -3 0 -19 -19 -36 -42z"/>
<path d="M8871 6993 c17 -54 34 -141 39 -193 14 -139 13 -3317 -1 -3416 -13
-98 -51 -218 -96 -309 -94 -188 -304 -354 -532 -418 -76 -21 -82 -22 -1416
-27 -737 -3 -2132 -3 -3100 0 l-1760 5 -75 22 c-41 12 -84 24 -95 28 -11 4 0
-7 25 -23 25 -16 48 -28 53 -25 4 2 7 0 7 -5 0 -5 44 -31 98 -57 53 -26 106
-52 117 -58 18 -9 45 -15 98 -20 9 -1 17 -5 17 -10 0 -5 6 -7 14 -4 8 3 16 1
18 -5 2 -5 34 -11 70 -13 37 -2 77 -6 89 -10 16 -6 20 -4 13 6 -6 11 -5 12 7
2 10 -8 39 -11 77 -9 38 2 63 -1 66 -8 2 -6 5 -3 5 7 1 21 21 23 21 2 0 -11 5
-12 25 -5 28 11 47 10 56 -4 4 -5 12 -5 19 -1 17 11 102 12 117 2 6 -4 14 -3
19 4 5 8 3 9 -6 4 -9 -5 -11 -4 -6 4 4 6 13 8 19 4 15 -10 127 -11 121 -1 -2
4 0 9 6 13 5 3 10 -1 10 -9 0 -18 16 -21 25 -6 4 6 10 8 15 5 5 -3 11 -1 15 5
7 12 57 2 67 -14 5 -7 8 -6 8 3 0 9 7 11 23 7 42 -13 52 -13 64 -4 7 5 14 5
17 -1 4 -6 12 -8 19 -6 35 10 77 14 72 5 -3 -5 4 -7 16 -5 12 2 30 0 40 -6 14
-7 17 -6 14 3 -6 15 8 16 237 18 75 1 142 -1 148 -5 5 -3 10 -2 10 2 0 12 110
6 145 -7 15 -6 30 -8 33 -5 3 3 -1 5 -8 5 -7 0 -11 3 -7 6 9 10 96 11 90 1 -3
-4 11 -5 30 -2 50 10 183 12 241 4 28 -3 53 -2 54 3 2 5 11 3 20 -4 13 -11 14
-11 7 2 -7 12 -6 13 6 3 9 -7 28 -9 55 -4 22 4 49 6 60 4 36 -8 304 -8 304 0
0 4 5 7 11 7 5 0 7 -5 3 -12 -5 -8 -2 -9 12 -3 10 4 26 7 34 7 83 -7 98 -6 94
0 -3 5 -1 8 5 8 5 0 13 -5 16 -10 4 -6 12 -7 18 -3 7 5 53 8 103 8 51 0 87 -3
82 -6 -6 -4 3 -8 20 -11 21 -3 28 -1 25 8 -3 9 17 11 84 8 173 -10 238 -11
270 -4 19 5 36 3 42 -3 8 -8 11 -7 11 2 0 10 3 11 13 2 10 -8 17 -7 26 2 9 9
14 9 21 -3 8 -12 10 -12 10 -1 0 9 8 11 24 7 14 -3 28 -1 31 4 4 6 10 8 14 6
17 -11 61 -14 55 -5 -8 13 28 7 39 -6 6 -6 10 -6 14 3 2 6 9 9 14 6 16 -10
159 -12 165 -2 3 5 14 6 25 3 25 -8 148 -8 183 1 18 4 27 3 23 -3 -4 -6 3 -8
17 -6 13 3 26 1 30 -5 3 -5 27 -6 60 0 31 4 116 7 191 5 116 -3 137 -2 145 12
6 10 10 11 10 4 0 -9 19 -11 71 -7 50 3 76 1 87 -8 12 -10 14 -10 8 0 -8 14 6
16 20 2 11 -11 68 -14 104 -6 14 3 27 1 32 -7 6 -9 12 -9 28 1 11 7 26 9 33 5
16 -10 47 -11 52 -3 5 8 113 5 122 -3 3 -4 15 -2 26 4 14 8 18 8 13 0 -5 -8 0
-8 19 -1 33 13 38 13 30 0 -3 -5 -2 -10 4 -10 5 0 13 5 16 10 5 8 12 7 23 -2
11 -9 14 -10 8 -1 -5 10 1 11 26 7 18 -3 39 -8 46 -10 7 -2 10 1 7 6 -4 7 3 7
19 0 18 -7 29 -6 38 4 11 11 16 10 27 -1 8 -8 16 -11 20 -6 3 4 26 8 51 7 25
-1 51 3 58 9 9 7 11 5 6 -9 -7 -18 -6 -18 16 1 13 11 20 15 16 8 -5 -9 21 -11
109 -9 63 1 115 0 115 -3 0 -9 136 -5 150 4 9 6 11 4 5 -5 -6 -9 -2 -10 15 -5
15 5 20 3 16 -3 -9 -15 8 -22 24 -10 12 8 12 9 -3 4 -11 -4 -16 -2 -12 5 4 6
42 9 101 6 53 -2 98 1 103 6 7 7 16 6 26 -3 13 -11 15 -10 9 3 -4 12 -1 14 13
11 11 -3 25 2 32 10 15 18 66 23 55 5 -6 -10 30 5 89 37 15 8 31 13 36 10 5
-4 12 0 14 6 4 10 8 9 16 -2 9 -12 11 -11 11 9 0 19 3 21 14 12 10 -8 16 -8
25 2 6 8 8 17 4 21 -10 9 29 35 44 29 7 -3 13 0 13 7 0 10 3 10 14 1 10 -8 16
-9 21 -1 3 5 1 10 -4 10 -6 0 -11 5 -11 10 0 6 7 10 15 10 9 0 24 8 34 18 21
21 65 96 51 87 -15 -10 -12 5 6 22 8 9 13 22 10 29 -3 7 5 20 17 29 19 13 20
17 7 25 -11 7 -11 10 -2 10 8 0 10 5 6 13 -6 9 -4 9 8 -1 13 -11 15 -7 13 32
-1 32 2 43 11 39 9 -3 12 2 9 19 -6 28 5 119 14 114 6 -4 12 69 15 179 0 28 7
55 13 60 10 8 10 20 2 53 -9 31 -8 46 0 56 9 11 9 15 0 18 -9 3 -9 9 1 27 7
15 8 21 1 17 -7 -5 -11 5 -11 28 0 19 5 38 10 41 7 4 6 13 -1 27 -8 14 -8 23
0 31 7 7 7 16 -1 30 -5 11 -6 22 -1 26 8 6 9 12 2 81 -2 19 0 41 5 48 4 7 3
19 -4 27 -7 8 -7 15 -1 19 6 4 6 18 1 36 -6 21 -5 30 3 30 8 0 7 3 -2 9 -8 5
-9 11 -3 15 9 5 7 66 -3 94 -2 7 1 24 7 38 9 18 9 27 1 32 -6 4 -10 33 -10 68
1 34 5 60 8 58 6 -3 5 71 -1 101 -2 6 -1 12 0 15 2 3 5 61 7 130 2 69 4 159 6
200 1 41 0 92 -4 112 -3 21 -2 35 2 32 10 -6 6 32 -4 42 -9 10 -9 46 1 41 4
-3 7 201 7 453 0 252 -3 456 -7 454 -4 -3 -5 10 -2 28 3 27 13 136 15 173 2
23 -13 130 -18 138 -4 6 -1 7 7 2 9 -6 11 4 9 44 -2 28 0 53 6 55 6 3 5 5 -2
5 -8 1 -10 16 -7 47 3 32 1 43 -7 38 -8 -4 -8 -1 -2 12 6 11 7 30 3 44 -4 14
-3 33 2 42 5 10 4 19 -2 23 -7 4 -6 13 1 27 8 15 8 19 0 14 -7 -4 -11 1 -11
13 0 10 -3 21 -7 24 -5 2 -2 2 6 0 9 -2 11 2 6 14 -4 10 -9 28 -11 41 -2 12
-5 32 -7 45 -7 37 -45 137 -67 174 -11 19 -20 38 -20 43 0 6 -16 30 -35 56
-19 25 -35 51 -35 59 0 12 -48 105 -55 105 -2 0 10 -44 26 -97z"/>
<path d="M4507 2459 c7 -7 15 -10 18 -7 3 3 -2 9 -12 12 -14 6 -15 5 -6 -5z"/>
</g>
</svg>
